<?xml version="1.0" encoding="utf-8"?>
<!-- Generator: Adobe Illustrator 27.0.0, SVG Export Plug-In . SVG Version: 6.00 Build 0)  -->
<svg version="1.1" id="Layer_1" xmlns="http://www.w3.org/2000/svg" xmlns:xlink="http://www.w3.org/1999/xlink" x="0px" y="0px"
	 viewBox="0 0 705.174 705.174" enable-background="new 0 0 705.174 705.174" xml:space="preserve">
<g>
	<circle cx="352.587" cy="352.587" r="352.587"/>
	<g>
		<path fill="#FFFFFF" d="M564.413,435.582c-11.642-1.974-22.89-1.251-33.226,1.647c-12.711,3.565-26.354,0.713-36.226-8.051
			L347.1,297.916c-14.357-12.745-17.245-34.069-6.796-50.173l25.609-39.47c7.393-11.394,20.276-17.809,33.85-17.346
			c5.691,0.194,11.542-0.252,17.483-1.412c29.845-5.829,53.217-29.696,58.429-59.655c8.894-51.126-34.36-94.912-85.351-86.948
			c-31.126,4.861-55.955,29.21-61.328,60.252c-2.887,16.675-0.219,32.567,6.451,46.133c6.082,12.37,5.379,26.991-2.124,38.554
			L184.487,417.238c-6.977,10.753-18.924,17.058-31.74,17.241c-3.051,0.044-6.145,0.27-9.269,0.687
			c-31.329,4.183-56.8,28.058-62.73,59.104c-9.989,52.297,34.721,97.346,86.938,87.954c30.315-5.453,54.215-29.511,59.489-59.858
			c3.13-18.009-0.2-35.1-8.061-49.339c-6.997-12.673-6.753-28.095,1.127-40.239l56.14-86.524
			c12.935-19.935,40.581-23.679,58.352-7.904l131.948,117.131c10.54,9.357,14.899,23.692,11.884,37.46
			c-2.046,9.342-2.338,19.344-0.519,29.645c5.455,30.889,30.235,55.064,61.223,59.926c50.574,7.934,93.553-35.043,85.624-85.616
			C620.003,465.715,595.542,440.859,564.413,435.582z M392.679,79.023c28.795-6.982,54.093,18.316,47.111,47.111
			c-3.314,13.668-14.117,24.471-27.785,27.785c-28.795,6.982-54.093-18.317-47.111-47.112
			C368.208,93.14,379.011,82.337,392.679,79.023z M163.505,546.419c-28.795,6.982-54.093-18.317-47.111-47.112
			c3.314-13.668,14.117-24.471,27.785-27.785c28.795-6.982,54.093,18.316,47.111,47.111
			C187.976,532.302,177.173,543.105,163.505,546.419z M561.005,546.419c-28.795,6.982-54.093-18.317-47.111-47.112
			c3.314-13.668,14.117-24.471,27.785-27.785c28.795-6.982,54.093,18.316,47.111,47.111
			C585.476,532.302,574.673,543.105,561.005,546.419z"/>
		<path fill="#FFFFFF" d="M153.713,583.984c-20.003,0-38.853-7.771-53.191-22.265c-17.666-17.857-25.052-42.475-20.264-67.542
			c5.987-31.348,31.367-55.262,63.155-59.506c3.107-0.415,6.245-0.648,9.328-0.692c12.823-0.183,24.535-6.542,31.328-17.013
			l148.835-229.388c7.302-11.254,8.105-25.839,2.095-38.062c-7.032-14.302-9.278-30.361-6.495-46.439
			c5.429-31.363,30.242-55.74,61.744-60.66c24.503-3.827,48.41,4.003,65.59,21.483c17.181,17.481,24.592,41.554,20.33,66.045
			c-5.23,30.073-28.871,54.209-58.825,60.06c-5.846,1.142-11.769,1.621-17.595,1.421c-13.655-0.451-26.156,5.933-33.415,17.118
			l-25.608,39.47c-10.395,16.02-7.573,36.85,6.708,49.527l147.86,131.262c9.634,8.551,22.999,11.521,35.76,7.943
			c10.806-3.03,22.057-3.59,33.444-1.658c31.467,5.334,55.938,30.146,60.892,61.74c3.804,24.265-3.855,48.022-21.015,65.18
			c-17.158,17.156-40.917,24.812-65.181,21.008c-31.363-4.92-56.134-29.166-61.638-60.333c-1.781-10.084-1.605-20.123,0.522-29.839
			c3.004-13.721-1.49-27.891-11.729-36.979L334.402,338.735c-8.361-7.423-19.514-10.818-30.591-9.318
			c-11.079,1.501-20.924,7.741-27.01,17.12l-56.141,86.524c-7.679,11.834-8.104,27.056-1.109,39.726
			c8.334,15.094,11.14,32.268,8.116,49.666c-5.312,30.557-29.381,54.775-59.894,60.264
			C163.054,583.565,158.351,583.983,153.713,583.984z M402.407,42.467c-3.967,0-7.979,0.31-12.006,0.939
			c-31.078,4.854-55.557,28.903-60.913,59.843c-2.747,15.869-0.532,31.715,6.407,45.827c6.165,12.537,5.34,27.499-2.153,39.047
			L184.907,417.51c-6.976,10.751-18.995,17.281-32.152,17.469c-3.043,0.044-6.142,0.273-9.21,0.684
			c-31.359,4.188-56.398,27.778-62.304,58.702c-4.725,24.738,2.562,49.032,19.993,66.651c17.428,17.617,41.616,25.168,66.365,20.716
			c30.101-5.414,53.845-29.306,59.085-59.451c2.985-17.171,0.216-34.119-8.006-49.012c-7.174-12.993-6.735-28.608,1.145-40.753
			l56.141-86.523c6.245-9.625,16.346-16.027,27.714-17.567c11.373-1.541,22.81,1.945,31.389,9.561l131.948,117.132
			c10.509,9.328,15.123,23.866,12.041,37.941c-2.1,9.587-2.272,19.495-0.515,29.45c5.43,30.746,29.867,54.665,60.808,59.519
			c23.947,3.756,47.389-3.799,64.319-20.728s24.487-40.371,20.733-64.317c-4.887-31.169-29.027-55.646-60.071-60.908
			c-11.24-1.905-22.345-1.355-33.007,1.635c-13.086,3.668-26.804,0.62-36.693-8.158L346.768,298.29
			c-14.654-13.008-17.549-34.381-6.883-50.819l25.609-39.47c7.45-11.482,20.292-18.064,34.286-17.573
			c5.758,0.196,11.599-0.276,17.37-1.403c29.55-5.771,52.871-29.582,58.032-59.25c4.204-24.169-3.106-47.924-20.059-65.173
			C440.996,50.227,422.257,42.467,402.407,42.467z M153.906,548.076c-10.367,0-20.283-3.999-27.726-11.442
			c-9.752-9.752-13.592-23.75-10.272-37.444c3.337-13.764,14.388-24.814,28.153-28.153c13.695-3.318,27.691,0.521,37.444,10.272
			c9.751,9.752,13.591,23.749,10.271,37.443c-3.337,13.765-14.389,24.815-28.153,28.153l0,0
			C160.381,547.692,157.122,548.076,153.906,548.076z M153.774,470.866c-3.137,0-6.314,0.375-9.478,1.143
			c-13.405,3.25-24.167,14.013-27.417,27.417c-3.237,13.352,0.503,26.997,10.007,36.501c9.504,9.503,23.148,13.246,36.5,10.006l0,0
			c13.404-3.249,24.166-14.011,27.417-27.417c3.237-13.352-0.503-26.996-10.007-36.5
			C173.545,474.764,163.879,470.866,153.774,470.866z M551.406,548.076c-10.366,0-20.283-3.999-27.727-11.442
			c-9.752-9.752-13.592-23.75-10.272-37.444c3.338-13.765,14.389-24.815,28.153-28.153c13.694-3.318,27.691,0.52,37.443,10.272
			c9.752,9.752,13.592,23.749,10.272,37.443c-3.338,13.765-14.388,24.815-28.152,28.153l-0.118-0.486l0.118,0.486
			C557.882,547.692,554.622,548.076,551.406,548.076z M551.273,470.866c-3.137,0-6.314,0.375-9.477,1.143
			c-13.405,3.25-24.167,14.012-27.417,27.417c-3.237,13.352,0.504,26.997,10.007,36.501c9.505,9.503,23.152,13.246,36.501,10.006
			c13.405-3.25,24.167-14.012,27.416-27.417c3.237-13.352-0.503-26.997-10.007-36.5
			C571.045,474.764,561.379,470.866,551.273,470.866z M402.407,155.576c-10.368,0-20.283-3.999-27.728-11.442
			c-9.752-9.752-13.592-23.75-10.272-37.443c3.338-13.765,14.389-24.815,28.153-28.153l0.118,0.486l-0.118-0.486
			c13.694-3.32,27.691,0.52,37.443,10.271c9.752,9.752,13.592,23.75,10.272,37.443c-3.338,13.765-14.388,24.815-28.152,28.153
			C408.883,155.191,405.622,155.576,402.407,155.576z M402.274,78.367c-3.137,0-6.315,0.375-9.478,1.142
			c-13.405,3.25-24.167,14.012-27.417,27.417c-3.237,13.352,0.503,26.998,10.007,36.501c9.504,9.503,23.151,13.243,36.501,10.007
			c13.405-3.25,24.167-14.012,27.416-27.417c3.237-13.353-0.503-26.998-10.007-36.501C422.044,82.263,412.379,78.367,402.274,78.367
			z"/>
	</g>
</g>
</svg>
